<svg version="1.1" x="0px" y="0px"
	 viewBox="0 0 1920 1080" style="enable-background:new 0 0 1920 1080;" xml:space="preserve">
<style type="text/css">
	.st0{fill:#010101;}
	.st1{display:none;fill:#FFFFFF;}
	.st2{display:none;fill:#FEFEFE;}
	.st3{display:none;fill:#8A8A8A;}
	.st4{display:none;fill:#949494;}
	.st5{display:none;fill:#868686;}
	.st6{display:none;fill:#5A5A5A;}
	.st7{display:none;fill:#B6B6B6;}
	.st8{display:none;fill:#010101;}
</style>
<path class="st0" d="M1029.9,724.9c-3.1-0.3-6.1-0.5-9.2-0.9c-3.7-0.4-7.3-1-10.9-1.6c-56.5-10.2-105.1-46-131.6-97
	c-1.6-3-3.1-6.1-4.5-9.2c-0.1-0.2-0.2-0.4-0.3-0.6c-0.3-0.5-0.3-0.6-0.9-0.5c-0.4,0-0.9,0.1-1.3,0.1c-10.6,0.7-21.1-1.3-30.7-5.7
	c-6.1-2.8-11.4-7-15.7-12.1c-4.5-5.3-7.7-11.6-9.5-18.3c-1.6-5.5-2.8-11-3.7-16.6c-0.6-3.9-0.9-7.8-1-11.7c0-2.7-0.1-5.4-0.1-8.1
	c0-16.2,0-32.4,0-48.7c0-7.8,0-15.6,0-23.3c0-1.2,0.1-2.3,0.5-3.4c0.4-1,0.9-1.8,1.6-2.6c1.2-1.3,2.9-2,4.7-1.9
	c1.2,0,2.3,0.1,3.5,0.1c4,0,8-0.1,12-0.1c1.2,0,2.3,0,3.5,0.2c1.4,0.2,2.7,0.9,3.7,2c1.2,1.4,1.8,3.1,1.8,4.9c0,7.3,0,14.6,0,21.9
	c0,19.8,0,39.6,0,59.5c0,6,0.9,12.1,2.5,17.9c1,3.8,2.8,7.4,5.4,10.5c2.9,3.6,6.7,6.3,11,7.9c0.9,0.3,1.9,0.6,2.8,0.8
	c0.4,0.1,0.5,0,0.4-0.4c-0.4-1.5-0.8-2.9-1.1-4.4c-1.3-5.4-2.3-10.8-3.1-16.3c-0.9-5.9-1.5-11.9-1.7-17.9
	c-0.3-6.4-0.3-12.8,0.1-19.2c0.2-2.9,0.4-5.8,0.7-8.6c0.3-3.2,0.7-6.4,1.2-9.5c0.7-4.7,1.6-9.3,2.7-14c6.5-27.4,19.1-53,37-74.8
	c26.3-32.2,62.8-54.6,103.4-63.5c5.4-1.2,10.9-2.1,16.4-2.8c4.8-0.6,9.6-1,14.5-1.3c1.8,0.1,3.6,0,5.3-0.3h7.2
	c1.7,0.3,3.4,0.4,5.1,0.3l6.8,0.5c5.3,0.4,10.6,1.1,15.9,2c7.7,1.3,15.2,3.1,22.7,5.4c46.6,14.3,85.7,46.4,108.9,89.3
	c0.1,0.4,0.4,0.7,0.6,1c0,0,0.1,0,0.1,0c0.4-0.2,0.7-0.3,1.1-0.5c11.3-6,23.7-9.6,36.4-10.6c5.8-0.5,11.6-0.4,17.3,0.3
	c4.6,0.5,9.2,1.4,13.7,2.5c26.4,7,48.4,25.2,60.2,49.7c3.6,7.5,6.2,15.5,7.7,23.7c0.7,3.3,1,6.6,1.2,10c0,0.4-0.1,0.8,0,1.2
	c0.1,3.6,0.1,7.2,0,10.7c0,0.4,0,0.8,0.1,1.2c0,0.8,0,1.6-0.1,2.4c-0.4,4.1-1.1,8.2-2,12.2c-4,17.5-13,33.5-26.1,45.9
	c-16.8,16.1-36.8,24.7-60,26c-5.9,0.3-11.9,0.1-17.8-0.8c-5.8-0.8-11.6-2.2-17.2-4.1c-3.5-1.2-6.9-2.6-10.2-4.2
	c-0.5-0.2-0.6-0.2-0.8,0.3c-1,2-1.9,4-3,6c-22.3,42.9-60.5,75.3-106.4,90.5c-10.7,3.5-21.6,6-32.8,7.5c-4.1,0.5-8.3,1-12.5,1.3
	c-1.7-0.1-3.4,0-5.1,0.3h-14.7c-1-0.3-2-0.4-3-0.2C1031.4,724.8,1030.6,724.8,1029.9,724.9z M1257.2,470.9L1257.2,470.9
	c-0.2-0.2-0.2-0.4-0.1-0.6c0.1-0.3,0.3-0.6,0.4-1c1-2.2,1.4-4.6,1.2-7c-0.1-1.2-0.5-2.4-1.1-3.4c-0.7-1.4-2.1-2.3-3.7-2.3
	c-0.4,0-0.8,0-1.2,0c-1.2,0.1-2.4,0.4-3.5,0.9c-1.3,0.6-2.5,1.2-3.6,2c-4.1,2.7-7.8,6-10.8,9.8c-1.4,1.6-2.4,3.5-3.1,5.5
	c-1,2.9-1.7,5.9-2.1,8.9c-0.2,2.3-0.8,4.6-1.7,6.7c-1.2,2.6-2.5,5.1-3.9,7.6c-1.2,2.2-3,4.1-5.2,5.5c-2.3,1.5-4.7,2.9-7.2,4
	c-3.1,1.5-5.9,3.4-8.4,5.8c-3.3,3.2-5.4,7.5-6,12c-0.2,1.6-0.5,3.3-0.8,4.9c-0.2,1.7-0.8,3.3-1.8,4.7c-0.7,1-1.1,2.1-1.3,3.3
	c-0.6,2.7,0.1,5.5,2,7.5c1.8,1.9,3.8,3.7,5.9,5.1c1.3,0.8,2.6,1.7,4,2.5c1.9,1.1,3.6,2.4,5.3,3.9c0.3,0.2,0.5,0.6,0.5,1
	c-0.1,1.2-0.2,2.4-0.3,3.6c-0.3,4.1-0.5,8.2-0.4,12.3c0,2.9,0.3,5.8,0.7,8.6c0.3,1.8,0.5,3.7,0.5,5.6c0.1,1-0.2,2-0.8,2.9
	c-0.3,0.4-0.6,0.9-0.9,1.3c-1.2,1.7-2.1,3.5-2.9,5.4c-0.3,0.8-0.5,1.6-0.6,2.5c-0.2,1,0.5,2,1.5,2.2c0.1,0,0.1,0,0.2,0
	c1.8,0.4,3.7,0.3,5.5-0.2c0.5-0.2,1-0.3,1.6-0.4c3.4-0.8,6.6-2.2,9.4-4.2c0.1-0.1,0.3-0.3,0.5-0.2c0.1,0.3,0.1,0.7,0.1,1
	c0,1.6,0.4,3.3,1.1,4.8c1,2.2,3.1,3.7,5.5,4c2.7,0.4,5.5,0.2,8.2-0.4c2.9-0.8,5.7-1.8,8.3-3.1c1.1-0.5,2.1-1.1,3-1.9
	c0.7-0.7,1.7-1,2.7-0.9c2.8,0.2,5.6,0.3,8.4,0.3c5,0,10,0.2,15-0.4c0.8-0.1,1.5,0.1,2.2,0.5c1.7,1.1,3.5,2.1,5.4,2.8
	c0.8,0.4,1.6,0.7,2.5,0.9c1.5,0.4,3,0.6,4.5,0.4c1.7-0.2,3.2-1.1,4.2-2.6c0.8-1.2,1.3-2.6,1.5-4.1c0.3-2.5-0.1-5-1.1-7.3
	c-0.6-1.2-1-2.5-1.4-3.7c-0.4-1.2-0.4-2.5-0.2-3.7c0.6-3.5,0.9-7,1-10.6c0.2-5.7-0.2-11.5-1.2-17.1c-0.8-4.7-2.1-9.3-3.8-13.7
	c-3.2-8-9.2-14.6-17-18.4c-3.1-1.6-6.5-2.6-9.9-2.9l-6.1-0.5c-1.8-0.3-3.6-0.2-5.4,0.3c-0.8,0.3-1.7-0.1-2.1-0.8
	c-0.5-0.8-1-1.6-1.4-2.4c-0.4-0.7-0.5-1.4-0.3-2.2c0.3-1,0.4-2,0.7-3c0.5-1.4,0.5-2.9,0-4.3c-0.1-0.3-0.1-0.6,0.2-0.8
	c0.2-0.2,0.4-0.4,0.7-0.6c4.7-4.4,9.2-8.9,13.5-13.6c3.2-3.4,6.1-7.1,9.1-10.6c2.1-2.5,4.3-5,6.3-7.5c1.9-2.4,3.5-4.9,4.9-7.6
	c0.7-1.4,1.3-2.8,1.8-4.3c0.2-0.7,0.3-1.4,0.3-2.1c0-0.9-0.7-1.7-1.6-1.9c-0.7-0.2-1.3-0.2-2-0.2c-2.1,0.1-4.2,0.5-6.2,1.4l-9.3,4.1
	c-0.4,0.2-0.9,0.4-1.3,0.6c-2.9,1.5-5.7,3.2-8.5,5C1257.4,470.6,1257.2,470.7,1257.2,470.9L1257.2,470.9z M1197.3,459.1
	c0-0.1,0-0.2,0-0.3c-0.2-0.4-0.4-0.7-0.6-1.1c-18.9-35.3-49.4-63-86.2-78.7c-15.7-6.6-32.3-10.9-49.2-12.7
	c-4.6-0.5-9.1-0.8-13.7-0.9s-9.2-0.1-13.7,0.1s-9.2,0.6-13.8,1.2c-5.4,0.7-10.7,1.6-16,2.8c-14.6,3.3-28.7,8.4-42,15.3
	c-45.1,23.3-77.8,65.1-89.7,114.4c-1.2,5.1-2.2,10.1-3,15.3c-0.5,3.5-0.9,7-1.2,10.5c-0.4,4.5-0.6,9-0.7,13.6
	c-0.1,5.8,0.2,11.5,0.7,17.3c0.3,3.4,0.7,6.8,1.2,10.2c0.6,4.2,1.4,8.4,2.3,12.6c0.7,3,1.4,6,2.3,8.9c0.2,0.8,0,0.9,1.2,0.7
	c0.2,0,0.3-0.1,0.5-0.1c6.9-1.6,12.8-6.2,16-12.5c1.5-2.9,2.7-6,3.5-9.2c1-3.6,1.5-7.3,1.4-11.1c0-2.5-0.1-5-0.1-7.5
	c0-25.6,0-51.2,0-76.8c0-0.5,0-1,0-1.5c0-1.2,0.2-2.5,0.6-3.7c0.3-1.3,1.3-2.4,2.6-2.8c1-0.3,2.1-0.5,3.2-0.5c5.1,0,10.1,0,15.2,0
	c3,0,5.6,2.1,6.3,5c0.2,0.7,0.2,1.5,0.2,2.3c0,27.1,0,54.1,0,81.2c0,4.1-0.3,8.3-0.9,12.3c-0.7,4.3-1.6,8.5-2.7,12.7
	c-1.8,7.3-5.3,14.2-10,20.1c-5,6.4-11.6,11.3-19.1,14.3c-2.6,1-5.2,1.9-7.8,2.5c-0.5,0.1-0.5,0.3-0.3,0.7c0.7,1.4,1.3,2.8,2,4.2
	c17.3,34.8,45.7,62.9,80.8,79.9c17.4,8.4,36,13.9,55.2,16.1c5.4,0.6,10.8,1,16.2,1.2s11.1,0,16.7-0.4c4-0.3,8-0.7,11.9-1.2
	c5.1-0.7,10.3-1.6,15.3-2.8c14.5-3.3,28.4-8.5,41.6-15.4c33.7-17.6,60.7-45.7,77.1-80c0.7-1.4,0.8-1.1-0.6-2
	c-6-3.9-11.6-8.6-16.5-13.8c-16.6-17.8-25.1-38.8-25.6-63.2c-0.1-4.7,0.2-9.4,0.9-14c0.8-6,2.2-11.9,4.2-17.6
	c6.2-17.9,17.8-33.6,33.1-44.7L1197.3,459.1z"/>
<path class="st1" d="M1054.9,724.9c4.2-0.3,8.3-0.7,12.5-1.3c11.1-1.5,22.1-4,32.8-7.5c45.9-15.1,84.1-47.6,106.4-90.5c1-2,2-4,3-6
	c0.2-0.5,0.3-0.5,0.8-0.3c3.3,1.6,6.7,3,10.2,4.2c5.6,1.9,11.3,3.3,17.2,4.1c5.9,0.9,11.9,1.1,17.8,0.8c23.2-1.3,43.3-10,60-26
	c13-12.4,22.1-28.4,26.1-45.9c0.9-4,1.6-8.1,2-12.2c0.1-0.8,0.1-1.6,0.1-2.4l0.1,0h0.1V725h-289.1
	C1054.9,725,1054.9,724.9,1054.9,724.9z"/>
<path class="st1" d="M1343.8,528.8c-0.1-3.4-0.5-6.7-1.2-10c-1.5-8.2-4.1-16.2-7.7-23.7c-11.8-24.6-33.8-42.8-60.2-49.7
	c-4.5-1.2-9.1-2-13.7-2.5c-5.7-0.6-11.5-0.7-17.3-0.3c-12.7,1-25.2,4.6-36.4,10.6c-0.3,0.2-0.7,0.4-1.1,0.5c0,0-0.1,0-0.1,0
	c-0.3-0.3-0.5-0.6-0.6-1c-23.2-42.9-62.3-75-108.9-89.3c-7.4-2.3-15-4.1-22.7-5.4c-5.3-0.9-10.5-1.6-15.9-2l-6.8-0.5v-0.3H1344
	v173.6L1343.8,528.8z"/>
<path class="st0" d="M576.6,501.1c0-0.4,0-0.8,0.1-1.2c0.2-2.2,0.6-4.4,1.2-6.5c1.8-7.3,5.6-13.9,11-19.2c1.7-1.7,3.7-3.1,5.7-4.3
	c5.1-3.1,10.7-5.3,16.5-6.7c6.1-1.5,12.5-2.1,18.8-1.8c5.5,0.2,10.9,1,16.2,2.5c2.6,0.7,5,1.8,7.4,3c0.7,0.4,1.4,0.8,2.1,1.2
	c1.3,0.8,2.8,1.5,4.2,2c1.1,0.3,2,1,2.7,1.9c0.9,1.1,1.2,2.6,0.7,4c-0.2,0.6-0.5,1.1-0.8,1.7c-2.6,4.3-4.7,8.7-6.5,13.4
	c-0.1,0.3-0.2,0.6-0.3,0.9c-0.5,1.4-1.8,2.3-3.2,2.4c-1.1,0.1-2.2-0.1-3.2-0.5c-1.2-0.6-2.4-1.2-3.5-1.9c-3.7-2.1-7.7-3.6-11.9-4.5
	c-4.3-1-8.9-0.9-13.2,0.4c-2,0.5-3.9,1.2-5.8,2c-1.5,0.7-2.9,1.6-4.2,2.6c-2.4,2-3.9,4.8-4.3,7.9c-0.4,3.1,0,6.3,1.4,9.2
	c0.9,2,2.2,3.7,3.9,5c2.2,1.8,4.6,3.4,7,4.8c2.9,1.7,5.9,3.1,9,4.3c4.6,1.7,9.1,3.7,13.5,5.9c5.6,2.9,10.8,6.5,15.4,10.9
	c4.5,4.3,8.1,9.5,10.6,15.2c1.5,3.5,2.5,7.2,3,11c0.3,2.5,0.3,5,0.2,7.5c-0.3,4.7-1.3,9.4-3,13.8c-2.9,7.7-8.4,14.1-15.5,18.2
	c-6.1,3.6-12.9,6.1-19.9,7.2c-5.4,0.9-10.8,1.5-16.3,1.7c-7.5,0.2-14.9-0.9-22-3.3c-4.3-1.4-8.3-3.3-12.1-5.7
	c-0.6-0.4-1.1-0.7-1.6-1.1c-1.4-1-2.5-2.4-3-4.1c-0.1-1.1,0.1-2.1,0.5-3.1c0.3-0.6,0.6-1.3,0.7-2c1-3.6,2.1-7.3,2.8-11
	c0.7-2.8,3.4-4.6,6.2-4.1c1.6,0.3,3.1,0.9,4.6,1.8c3.8,2.3,8,4.1,12.3,5.2c4.8,1.1,9.6,1.7,14.5,1.8c4.6,0,9.1-1,13.3-2.9
	c3.7-1.6,6.7-4.6,8.3-8.3c2.1-4.4,2-9.5-0.2-13.8c-0.8-1.5-1.7-2.9-2.8-4.2c-2.4-2.8-5.3-5.3-8.5-7.2c-4-2.3-8.2-4.4-12.5-6.1
	c-4.3-1.7-8.5-3.6-12.5-5.8c-8.6-4.6-15.8-11.2-21.1-19.3c-2.8-4.4-5.1-14-5.1-14c-0.1-0.4-0.1-0.9-0.2-1.3
	C576.8,505.5,576.6,501.1,576.6,501.1z"/>
<path class="st2" d="M576.3,506.5c0.4,0.3,0.2,0.7,0.2,1.1c0.4,5.3,2.8,9.9,5.6,14.3c5.3,8.1,12.5,14.8,21.1,19.3
	c4.1,2.2,8.3,4.2,12.6,5.8c4.3,1.8,8.5,3.8,12.5,6.2c3.2,1.9,6.1,4.3,8.5,7.2c1.1,1.3,2.1,2.7,2.8,4.2c2.2,4.3,2.3,9.4,0.2,13.8
	c-1.6,3.7-4.6,6.7-8.3,8.3c-4.2,1.9-8.7,2.9-13.3,2.9c-4.9,0-9.8-0.6-14.5-1.8c-4.3-1.1-8.5-2.9-12.3-5.2c-1.4-0.8-3-1.4-4.6-1.8
	c-2.8-0.5-5.6,1.3-6.2,4.1c-0.7,3.7-1.8,7.3-2.8,11c-0.2,0.7-0.4,1.4-0.7,2c-0.4,1-0.6,2.1-0.5,3.1h-0.5L576.3,506.5z"/>
<path class="st3" d="M1343.8,528.8h0.3v13.1h-0.1l-0.1,0c0-0.4-0.1-0.8-0.1-1.2c0.1-3.6,0.1-7.2,0-10.7
	C1343.7,529.6,1343.7,529.3,1343.8,528.8z"/>
<path class="st3" d="M1038.9,355.3c-1.8,0.3-3.5,0.4-5.3,0.3v-0.3H1038.9z"/>
<path class="st4" d="M1051.2,355.3v0.3c-1.7,0.1-3.4,0-5.1-0.3H1051.2z"/>
<path class="st5" d="M1054.9,724.9c-0.1,0.1-0.1,0.2,0,0.3h-5.1C1051.5,724.9,1053.2,724.8,1054.9,724.9z"/>
<path class="st6" d="M1032.2,724.9c1-0.1,2-0.1,3,0.2h-2.9C1032.3,725.1,1032.3,725,1032.2,724.9z"/>
<path class="st7" d="M1032.2,724.9c0,0.1,0,0.2,0,0.2h-2.4c0-0.1,0-0.2,0-0.3C1030.6,724.8,1031.4,724.8,1032.2,724.9z"/>
<path class="st0" d="M750.6,547.7c0,6.3,0,12.6,0,18.9c0,13.5,0,26.9,0,40.4c0,1.5-0.3,2.9-1,4.2c-0.6,1.4-1.9,2.3-3.4,2.5
	c-0.5,0.1-1.1,0.1-1.6,0.1c-5.2,0-10.3,0-15.5,0c-1.8,0-3.4-0.8-4.5-2.3c-1.2-1.5-1.9-3.2-2.1-5.1c-0.1-1-0.1-2-0.1-3.1
	c0-0.5,0-1.1,0-1.6c0-36.5,0-73,0-109.6c0-1.5,0-3.1,0-4.7c0-0.6-0.1-0.7-0.7-0.7h-0.9h-29.6c-2.5,0-5,0-7.5-0.1
	c-0.7,0-1.3-0.1-2-0.1c-0.4,0-0.8-0.2-1.1-0.4c-1.2-0.6-1.9-1.8-1.8-3.1c0-1.4,0-2.8,0.1-4.3c0.2-2.8,0.2-5.6,0-8.4
	c-0.1-1.5,0.1-3,0.7-4.5c0.4-1.2,1.4-2.1,2.7-2.4c1.6-0.3,3.3-0.5,4.9-0.5c1.5,0,2.9,0,4.4,0h39.2H754h24.1h12
	c0.9,0,1.8,0.1,2.6,0.3c0.6,0.2,1.3,0.4,1.8,0.8c1.6,0.8,2.7,2.5,2.7,4.3c0.1,1,0,2,0.1,3.1c0.2,3.7,0,7.5-0.1,11.2
	c0,1.7-1,3.1-2.5,3.7c-0.9,0.4-1.8,0.7-2.8,0.7l-10.8-0.1c-3.5,0-7-0.1-10.5-0.1l-18.4-0.1h-0.8c-0.9,0-0.9,0-0.9,0.9
	c0,4.8,0,9.7,0,14.5c0,7.8,0,15.6,0,23.3L750.6,547.7L750.6,547.7z"/>
<path class="st1" d="M1197.3,459.2l-1.3,0.9c-15.4,11.2-27,26.8-33.2,44.8c-2,5.7-3.4,11.6-4.2,17.6c-0.7,4.6-1,9.3-0.9,14
	c0.5,24.3,9,45.4,25.6,63.2c4.9,5.3,10.5,9.9,16.5,13.8c1.4,0.9,1.3,0.6,0.6,2c-22.9,48.2-66.6,83.3-118.7,95.3
	c-5.1,1.2-10.2,2.1-15.3,2.8c-4,0.5-7.9,1-11.9,1.2c-5.6,0.4-11.1,0.5-16.7,0.4s-10.8-0.5-16.2-1.2c-37.8-4.5-73-21.2-100.4-47.6
	c-14.6-14-26.6-30.4-35.6-48.5c-0.7-1.4-1.3-2.8-2-4.2c-0.2-0.4-0.1-0.5,0.3-0.7c2.7-0.7,5.3-1.5,7.8-2.5c7.5-3,14.1-7.9,19.1-14.2
	c4.7-5.9,8.2-12.7,10-20.1c1.1-4.2,2-8.4,2.6-12.6c0.6-4.1,0.9-8.2,0.9-12.3c0-27.1,0-54.1,0-81.2c0-0.8,0-1.5-0.2-2.3
	c-0.7-2.9-3.3-5-6.3-5c-5.1,0-10.1,0-15.2,0c-1.1,0-2.1,0.1-3.2,0.5c-1.3,0.4-2.3,1.4-2.6,2.8c-0.3,1.2-0.5,2.4-0.6,3.7
	c0,0.5,0,1,0,1.5c0,25.6,0,51.2,0,76.8c0,2.5,0.1,5,0.1,7.5c0.1,3.7-0.4,7.5-1.4,11.1c-0.9,3.2-2,6.2-3.5,9.2
	c-3.2,6.3-9.1,10.9-16,12.5c-0.2,0-0.3,0.1-0.5,0.1c-1.2,0.2-1,0.1-1.2-0.7c-0.8-3-1.6-5.9-2.3-8.9c-0.9-4.2-1.7-8.3-2.3-12.6
	c-0.5-3.4-0.9-6.8-1.2-10.2c-0.5-5.8-0.8-11.5-0.7-17.3c0.1-4.5,0.3-9.1,0.7-13.6c0.3-3.5,0.7-7,1.2-10.5c0.8-5.1,1.8-10.2,3-15.3
	c15.6-64.8,66.7-115.1,131.7-129.7c5.3-1.2,10.6-2.1,16-2.8c4.6-0.6,9.2-1,13.8-1.2s9.2-0.3,13.7-0.1s9.1,0.5,13.7,0.9
	c16.9,1.8,33.5,6.1,49.2,12.7c36.9,15.6,67.3,43.4,86.2,78.7c0.2,0.4,0.4,0.7,0.6,1.1C1197.3,459,1197.3,459.1,1197.3,459.2z
	 M1070.5,538.9l-1-0.9l-41.8-33.5L956,447.1c-0.4-0.4-0.8-0.7-1.3-0.9c-0.4,0.5-0.2,1.1-0.2,1.6c0,60.7,0,121.3,0,182
	c0,0.6-0.2,1.3,0.2,1.9c0.6-0.3,1.1-0.6,1.5-1.1l43.9-35.2l69.3-55.5C1069.7,539.6,1070,539.3,1070.5,538.9z M1105.5,538
	c0,19.9,0,39.9,0,59.8c0,0.5,0,1,0,1.5c-0.1,1.4,0,2.8,0.1,4.1c0.2,2.7,2.1,5.1,4.7,6c0.9,0.3,1.8,0.5,2.7,0.5c4,0.1,7.9,0.1,11.9,0
	c2.2-0.1,4.3-0.8,6.1-2.1c1.4-0.9,2.2-2.4,2.4-4c0.1-1.1,0.2-2.3,0.2-3.5c0-31.5,0-62.9,0-94.4c0-10.1,0-20.2,0-30.3
	c0-1.2-0.1-2.3-0.2-3.5c-0.1-1-0.6-2-1.4-2.6c-1.1-1-2.5-1.7-4-1.9c-2.2-0.3-4.5-0.5-6.8-0.6c-2.9-0.1-5.8,0-8.7,0.3
	c-1.1,0.1-2.1,0.3-3.1,0.5c-2.1,0.5-3.6,2.3-3.7,4.4c-0.1,0.7-0.1,1.3-0.1,2C1105.5,495.6,1105.5,516.8,1105.5,538L1105.5,538z"/>
<path class="st2" d="M1257.2,470.9c0-0.3,0.3-0.3,0.4-0.5c2.7-1.8,5.6-3.5,8.5-5c0.4-0.2,0.9-0.4,1.3-0.6l9.3-4.1
	c2-0.8,4.1-1.3,6.2-1.4c0.7,0,1.3,0,2,0.2c0.9,0.2,1.6,0.9,1.6,1.9c0.1,0.7,0,1.4-0.3,2.1c-0.5,1.5-1.1,2.9-1.8,4.3
	c-1.4,2.7-3,5.2-4.9,7.6c-2,2.6-4.2,5-6.3,7.5c-3,3.6-5.9,7.2-9.1,10.6c-4.3,4.7-8.8,9.3-13.5,13.6c-0.2,0.2-0.4,0.4-0.7,0.6
	c-0.3,0.2-0.3,0.5-0.2,0.8c0.5,1.4,0.5,2.9,0,4.3c-0.3,1-0.5,2-0.7,3c-0.2,0.7-0.1,1.5,0.3,2.2c0.5,0.8,1,1.6,1.4,2.4
	c0.4,0.7,1.3,1.1,2.1,0.8c1.8-0.4,3.6-0.5,5.4-0.3l6.1,0.5c3.5,0.3,6.8,1.3,9.9,2.9c7.8,3.8,13.8,10.3,17,18.4
	c1.8,4.4,3.1,9,3.8,13.7c1,5.7,1.4,11.4,1.2,17.1c-0.1,3.6-0.4,7.1-1,10.6c-0.2,1.2-0.1,2.5,0.2,3.7c0.4,1.3,0.8,2.5,1.4,3.7
	c1.1,2.3,1.5,4.8,1.1,7.3c-0.2,1.5-0.7,2.9-1.5,4.1c-0.9,1.5-2.4,2.4-4.2,2.6c-1.5,0.2-3,0.1-4.5-0.4c-0.9-0.2-1.7-0.5-2.5-0.9
	c-1.9-0.8-3.7-1.7-5.4-2.8c-0.6-0.4-1.4-0.6-2.2-0.5c-5,0.6-10,0.3-15,0.4c-2.8,0.1-5.6,0-8.4-0.3c-1-0.1-2,0.2-2.7,0.9
	c-0.9,0.8-1.9,1.4-3,1.9c-2.7,1.3-5.5,2.3-8.3,3.1c-2.7,0.7-5.5,0.8-8.2,0.4c-2.4-0.3-4.5-1.8-5.5-4c-0.7-1.5-1.1-3.1-1.1-4.8
	c0-0.3,0-0.7-0.1-1c-0.3-0.1-0.4,0.1-0.5,0.2c-2.9,2-6.1,3.4-9.4,4.2c-0.5,0.1-1,0.2-1.6,0.4c-1.8,0.5-3.7,0.6-5.5,0.2
	c-1.1-0.1-1.9-1-1.8-2.1c0-0.1,0-0.1,0-0.2c0.1-0.8,0.3-1.7,0.6-2.5c0.8-1.9,1.7-3.7,2.9-5.4c0.3-0.4,0.6-0.9,0.9-1.3
	c0.6-0.8,0.9-1.9,0.8-2.9c0-1.9-0.2-3.7-0.5-5.6c-0.5-2.8-0.7-5.7-0.7-8.6c-0.1-4.1,0.1-8.2,0.4-12.3c0.1-1.2,0.1-2.4,0.3-3.6
	c0-0.4-0.1-0.8-0.5-1c-1.6-1.4-3.4-2.7-5.3-3.9c-1.3-0.8-2.7-1.6-4-2.5c-2.2-1.4-4.2-3.2-5.9-5.1c-1.9-2-2.6-4.9-2-7.5
	c0.2-1.2,0.6-2.3,1.3-3.3c0.9-1.4,1.5-3,1.8-4.7c0.3-1.6,0.5-3.2,0.8-4.9c0.6-4.6,2.7-8.8,6-12c2.4-2.4,5.3-4.4,8.4-5.8
	c2.5-1.2,4.9-2.5,7.2-4c2.2-1.4,3.9-3.2,5.2-5.5c1.4-2.5,2.7-5,3.9-7.6c0.9-2.1,1.5-4.4,1.7-6.7c0.4-3,1.2-6,2.1-8.9
	c0.7-2,1.7-3.9,3.1-5.5c3.1-3.8,6.7-7.1,10.8-9.8c1.2-0.8,2.4-1.4,3.6-2c1.1-0.5,2.3-0.8,3.5-0.9c0.4,0,0.8,0,1.2,0
	c1.6,0,3,0.9,3.7,2.3c0.6,1,1,2.2,1.1,3.4c0.2,2.4-0.2,4.8-1.2,7c-0.1,0.3-0.3,0.6-0.4,1c-0.1,0.2,0,0.4,0.1,0.6l-0.1-0.1l0,0
	L1257.2,470.9z"/>
<path class="st0" d="M1070.5,538.9c-0.5,0.4-0.8,0.7-1.2,1l-69.3,55.6l-43.9,35.2c-0.4,0.4-0.9,0.8-1.5,1.1
	c-0.4-0.6-0.2-1.3-0.2-1.9c0-60.7,0-121.3,0-182c0-0.5-0.2-1.1,0.2-1.6c0.5,0.2,0.9,0.5,1.3,0.9l71.7,57.4l41.8,33.5L1070.5,538.9z"
	/>
<path class="st0" d="M1105.5,538c0-21.2,0-42.4,0-63.6c0-0.7,0-1.3,0.1-2c0.2-2.1,1.7-3.9,3.7-4.4c1-0.3,2.1-0.4,3.1-0.5
	c2.9-0.3,5.8-0.4,8.7-0.3c2.3,0.1,4.5,0.3,6.8,0.6c1.5,0.2,2.9,0.9,4,1.9c0.8,0.7,1.3,1.6,1.4,2.6c0.2,1.1,0.2,2.3,0.2,3.5
	c0,10.1,0,20.2,0,30.3c0,31.5,0,62.9,0,94.4c0,1.2,0,2.3-0.2,3.5c-0.2,1.6-1.1,3.1-2.4,4c-1.8,1.3-3.9,2-6.1,2.1
	c-4,0.1-7.9,0.1-11.9,0c-0.9,0-1.9-0.2-2.7-0.5c-2.6-0.9-4.4-3.2-4.7-6c-0.2-1.4-0.2-2.7-0.1-4.1c0-0.5,0-1,0-1.5
	C1105.5,578,1105.5,558,1105.5,538z"/>
<path class="st8" d="M1257.2,470.9l-0.1-0.1l0,0L1257.2,470.9L1257.2,470.9z"/>
</svg>
